<mxfile host="Electron" agent="Mozilla/5.0 (Windows NT 10.0; Win64; x64) AppleWebKit/537.36 (KHTML, like Gecko) draw.io/26.2.2 Chrome/134.0.6998.178 Electron/35.1.2 Safari/537.36" version="26.2.2">
  <diagram id="R2lEEEUBdFMjLlhIrx00" name="Page-1">
    <mxGraphModel dx="1165" dy="729" grid="1" gridSize="10" guides="1" tooltips="1" connect="1" arrows="1" fold="1" page="1" pageScale="1" pageWidth="850" pageHeight="1100" math="0" shadow="0" extFonts="Permanent Marker^https://fonts.googleapis.com/css?family=Permanent+Marker">
      <root>
        <mxCell id="0" />
        <mxCell id="1" parent="0" />
        <mxCell id="e_ChHj24QM5TAyRF-pIB-1" value="&lt;b&gt;&lt;font style=&quot;font-size: 14px;&quot;&gt;ward&lt;/font&gt;&lt;/b&gt;" style="rounded=0;whiteSpace=wrap;html=1;" parent="1" vertex="1">
          <mxGeometry x="211" y="240" width="120" height="60" as="geometry" />
        </mxCell>
        <mxCell id="e_ChHj24QM5TAyRF-pIB-2" value="&lt;div&gt;&lt;span style=&quot;background-color: transparent; color: light-dark(rgb(0, 0, 0), rgb(255, 255, 255));&quot;&gt;id&lt;/span&gt;&lt;/div&gt;" style="ellipse;whiteSpace=wrap;html=1;rounded=0;" parent="1" vertex="1">
          <mxGeometry x="278" y="190" width="50" height="25" as="geometry" />
        </mxCell>
        <mxCell id="e_ChHj24QM5TAyRF-pIB-4" value="name" style="ellipse;whiteSpace=wrap;html=1;rounded=0;" parent="1" vertex="1">
          <mxGeometry x="211" y="190" width="50" height="25" as="geometry" />
        </mxCell>
        <mxCell id="e_ChHj24QM5TAyRF-pIB-11" value="name" style="ellipse;whiteSpace=wrap;html=1;rounded=0;" parent="1" vertex="1">
          <mxGeometry x="673" y="165" width="60" height="30" as="geometry" />
        </mxCell>
        <mxCell id="e_ChHj24QM5TAyRF-pIB-12" value="&lt;div&gt;&lt;span style=&quot;background-color: transparent; color: light-dark(rgb(0, 0, 0), rgb(255, 255, 255));&quot;&gt;id&lt;/span&gt;&lt;/div&gt;" style="ellipse;whiteSpace=wrap;html=1;rounded=0;" parent="1" vertex="1">
          <mxGeometry x="568" y="175" width="40" height="15" as="geometry" />
        </mxCell>
        <mxCell id="e_ChHj24QM5TAyRF-pIB-14" value="birth" style="ellipse;whiteSpace=wrap;html=1;rounded=0;" parent="1" vertex="1">
          <mxGeometry x="608" y="150" width="65" height="25" as="geometry" />
        </mxCell>
        <mxCell id="e_ChHj24QM5TAyRF-pIB-21" value="&lt;b&gt;&lt;font style=&quot;font-size: 14px;&quot;&gt;nurse&lt;/font&gt;&lt;/b&gt;" style="rounded=0;whiteSpace=wrap;html=1;" parent="1" vertex="1">
          <mxGeometry x="223" y="490" width="120" height="60" as="geometry" />
        </mxCell>
        <mxCell id="e_ChHj24QM5TAyRF-pIB-24" value="id" style="ellipse;whiteSpace=wrap;html=1;rounded=0;" parent="1" vertex="1">
          <mxGeometry x="118" y="500" width="60" height="22.5" as="geometry" />
        </mxCell>
        <mxCell id="e_ChHj24QM5TAyRF-pIB-26" value="address" style="ellipse;whiteSpace=wrap;html=1;rounded=0;" parent="1" vertex="1">
          <mxGeometry x="118" y="530" width="60" height="32.5" as="geometry" />
        </mxCell>
        <mxCell id="e_ChHj24QM5TAyRF-pIB-28" value="name" style="ellipse;whiteSpace=wrap;html=1;rounded=0;" parent="1" vertex="1">
          <mxGeometry x="118" y="465" width="60" height="25" as="geometry" />
        </mxCell>
        <mxCell id="e_ChHj24QM5TAyRF-pIB-32" value="code" style="ellipse;whiteSpace=wrap;html=1;rounded=0;" parent="1" vertex="1">
          <mxGeometry x="496" y="700" width="72" height="30" as="geometry" />
        </mxCell>
        <mxCell id="e_ChHj24QM5TAyRF-pIB-34" value="recommended" style="ellipse;whiteSpace=wrap;html=1;rounded=0;" parent="1" vertex="1">
          <mxGeometry x="388" y="730" width="120" height="35" as="geometry" />
        </mxCell>
        <mxCell id="e_ChHj24QM5TAyRF-pIB-53" value="&lt;span style=&quot;font-size: 14px;&quot;&gt;&lt;b&gt;consultant&lt;/b&gt;&lt;/span&gt;" style="rounded=0;whiteSpace=wrap;html=1;" parent="1" vertex="1">
          <mxGeometry x="588" y="500" width="120" height="60" as="geometry" />
        </mxCell>
        <mxCell id="e_ChHj24QM5TAyRF-pIB-58" value="id" style="ellipse;whiteSpace=wrap;html=1;rounded=0;" parent="1" vertex="1">
          <mxGeometry x="576" y="600" width="60" height="25" as="geometry" />
        </mxCell>
        <mxCell id="e_ChHj24QM5TAyRF-pIB-65" value="" style="ellipse;whiteSpace=wrap;html=1;" parent="1" vertex="1">
          <mxGeometry x="313" y="670" width="100" height="60" as="geometry" />
        </mxCell>
        <mxCell id="e_ChHj24QM5TAyRF-pIB-66" value="brand name" style="ellipse;whiteSpace=wrap;html=1;" parent="1" vertex="1">
          <mxGeometry x="320" y="675" width="86" height="50" as="geometry" />
        </mxCell>
        <mxCell id="e_ChHj24QM5TAyRF-pIB-67" value="host" style="rhombus;whiteSpace=wrap;html=1;rounded=0;" parent="1" vertex="1">
          <mxGeometry x="418" y="245" width="80" height="80" as="geometry" />
        </mxCell>
        <mxCell id="e_ChHj24QM5TAyRF-pIB-70" value="1" style="text;html=1;align=center;verticalAlign=middle;resizable=0;points=[];autosize=1;strokeColor=none;fillColor=none;" parent="1" vertex="1">
          <mxGeometry x="398" y="260" width="30" height="30" as="geometry" />
        </mxCell>
        <mxCell id="e_ChHj24QM5TAyRF-pIB-71" value="n" style="text;html=1;align=center;verticalAlign=middle;resizable=0;points=[];autosize=1;strokeColor=none;fillColor=none;" parent="1" vertex="1">
          <mxGeometry x="488" y="260" width="30" height="30" as="geometry" />
        </mxCell>
        <mxCell id="e_ChHj24QM5TAyRF-pIB-86" value="name" style="ellipse;whiteSpace=wrap;html=1;rounded=0;" parent="1" vertex="1">
          <mxGeometry x="648" y="600" width="60" height="20" as="geometry" />
        </mxCell>
        <mxCell id="e_ChHj24QM5TAyRF-pIB-88" value="supervises" style="rhombus;whiteSpace=wrap;html=1;rounded=0;" parent="1" vertex="1">
          <mxGeometry x="198" y="365" width="70" height="70" as="geometry" />
        </mxCell>
        <mxCell id="e_ChHj24QM5TAyRF-pIB-91" value="n" style="text;html=1;align=center;verticalAlign=middle;resizable=0;points=[];autosize=1;strokeColor=none;fillColor=none;" parent="1" vertex="1">
          <mxGeometry x="211" y="430" width="30" height="30" as="geometry" />
        </mxCell>
        <mxCell id="e_ChHj24QM5TAyRF-pIB-92" value="1" style="text;html=1;align=center;verticalAlign=middle;resizable=0;points=[];autosize=1;strokeColor=none;fillColor=none;" parent="1" vertex="1">
          <mxGeometry x="211" y="345" width="30" height="30" as="geometry" />
        </mxCell>
        <mxCell id="z5uoEHmQc081tSA6JXY4-1" value="" style="endArrow=none;html=1;rounded=0;entryX=0.5;entryY=1;entryDx=0;entryDy=0;shape=link;exitX=0.086;exitY=-0.017;exitDx=0;exitDy=0;exitPerimeter=0;" edge="1" parent="1" source="e_ChHj24QM5TAyRF-pIB-21" target="e_ChHj24QM5TAyRF-pIB-88">
          <mxGeometry width="50" height="50" relative="1" as="geometry">
            <mxPoint x="288" y="490" as="sourcePoint" />
            <mxPoint x="418" y="520" as="targetPoint" />
          </mxGeometry>
        </mxCell>
        <mxCell id="z5uoEHmQc081tSA6JXY4-5" value="" style="endArrow=none;html=1;rounded=0;entryX=0;entryY=0.25;entryDx=0;entryDy=0;exitX=1;exitY=0.5;exitDx=0;exitDy=0;" edge="1" parent="1" source="e_ChHj24QM5TAyRF-pIB-28" target="e_ChHj24QM5TAyRF-pIB-21">
          <mxGeometry width="50" height="50" relative="1" as="geometry">
            <mxPoint x="308" y="480" as="sourcePoint" />
            <mxPoint x="358" y="430" as="targetPoint" />
          </mxGeometry>
        </mxCell>
        <mxCell id="z5uoEHmQc081tSA6JXY4-6" value="" style="endArrow=none;html=1;rounded=0;entryX=0;entryY=0.5;entryDx=0;entryDy=0;" edge="1" parent="1" source="e_ChHj24QM5TAyRF-pIB-24" target="e_ChHj24QM5TAyRF-pIB-21">
          <mxGeometry width="50" height="50" relative="1" as="geometry">
            <mxPoint x="188" y="488" as="sourcePoint" />
            <mxPoint x="238" y="518" as="targetPoint" />
          </mxGeometry>
        </mxCell>
        <mxCell id="z5uoEHmQc081tSA6JXY4-7" value="" style="endArrow=none;html=1;rounded=0;entryX=0.024;entryY=0.872;entryDx=0;entryDy=0;exitX=0.922;exitY=0.687;exitDx=0;exitDy=0;entryPerimeter=0;exitPerimeter=0;" edge="1" parent="1" source="e_ChHj24QM5TAyRF-pIB-26" target="e_ChHj24QM5TAyRF-pIB-21">
          <mxGeometry width="50" height="50" relative="1" as="geometry">
            <mxPoint x="198" y="498" as="sourcePoint" />
            <mxPoint x="248" y="528" as="targetPoint" />
          </mxGeometry>
        </mxCell>
        <mxCell id="z5uoEHmQc081tSA6JXY4-8" value="" style="endArrow=none;html=1;rounded=0;entryX=0.179;entryY=1.011;entryDx=0;entryDy=0;exitX=0.5;exitY=0;exitDx=0;exitDy=0;entryPerimeter=0;" edge="1" parent="1" source="e_ChHj24QM5TAyRF-pIB-88" target="e_ChHj24QM5TAyRF-pIB-1">
          <mxGeometry width="50" height="50" relative="1" as="geometry">
            <mxPoint x="308" y="480" as="sourcePoint" />
            <mxPoint x="358" y="430" as="targetPoint" />
          </mxGeometry>
        </mxCell>
        <mxCell id="z5uoEHmQc081tSA6JXY4-9" value="" style="endArrow=none;html=1;rounded=0;exitX=0.204;exitY=-0.017;exitDx=0;exitDy=0;exitPerimeter=0;entryX=0.5;entryY=1;entryDx=0;entryDy=0;" edge="1" parent="1" source="e_ChHj24QM5TAyRF-pIB-1" target="e_ChHj24QM5TAyRF-pIB-4">
          <mxGeometry width="50" height="50" relative="1" as="geometry">
            <mxPoint x="418" y="370" as="sourcePoint" />
            <mxPoint x="468" y="320" as="targetPoint" />
          </mxGeometry>
        </mxCell>
        <mxCell id="z5uoEHmQc081tSA6JXY4-10" value="" style="endArrow=none;html=1;rounded=0;exitX=0.635;exitY=0.011;exitDx=0;exitDy=0;exitPerimeter=0;entryX=0.5;entryY=1;entryDx=0;entryDy=0;" edge="1" parent="1" source="e_ChHj24QM5TAyRF-pIB-1" target="e_ChHj24QM5TAyRF-pIB-2">
          <mxGeometry width="50" height="50" relative="1" as="geometry">
            <mxPoint x="432" y="409" as="sourcePoint" />
            <mxPoint x="429" y="355" as="targetPoint" />
          </mxGeometry>
        </mxCell>
        <mxCell id="z5uoEHmQc081tSA6JXY4-12" value="supervises" style="rhombus;whiteSpace=wrap;html=1;rounded=0;" vertex="1" parent="1">
          <mxGeometry x="282" y="365" width="70" height="70" as="geometry" />
        </mxCell>
        <mxCell id="z5uoEHmQc081tSA6JXY4-15" value="" style="endArrow=none;html=1;rounded=0;entryX=0.867;entryY=0.983;entryDx=0;entryDy=0;entryPerimeter=0;exitX=0.5;exitY=0;exitDx=0;exitDy=0;shape=link;" edge="1" parent="1" source="z5uoEHmQc081tSA6JXY4-12" target="e_ChHj24QM5TAyRF-pIB-1">
          <mxGeometry width="50" height="50" relative="1" as="geometry">
            <mxPoint x="418" y="370" as="sourcePoint" />
            <mxPoint x="468" y="320" as="targetPoint" />
          </mxGeometry>
        </mxCell>
        <mxCell id="z5uoEHmQc081tSA6JXY4-16" value="" style="endArrow=none;html=1;rounded=0;exitX=0.801;exitY=-0.017;exitDx=0;exitDy=0;entryX=0.5;entryY=1;entryDx=0;entryDy=0;exitPerimeter=0;" edge="1" parent="1" source="e_ChHj24QM5TAyRF-pIB-21" target="z5uoEHmQc081tSA6JXY4-12">
          <mxGeometry width="50" height="50" relative="1" as="geometry">
            <mxPoint x="312" y="497" as="sourcePoint" />
            <mxPoint x="288" y="460" as="targetPoint" />
          </mxGeometry>
        </mxCell>
        <mxCell id="z5uoEHmQc081tSA6JXY4-17" value="n" style="text;html=1;align=center;verticalAlign=middle;resizable=0;points=[];autosize=1;strokeColor=none;fillColor=none;" vertex="1" parent="1">
          <mxGeometry x="313" y="345" width="30" height="30" as="geometry" />
        </mxCell>
        <mxCell id="z5uoEHmQc081tSA6JXY4-18" value="1" style="text;html=1;align=center;verticalAlign=middle;resizable=0;points=[];autosize=1;strokeColor=none;fillColor=none;" vertex="1" parent="1">
          <mxGeometry x="308" y="430" width="30" height="30" as="geometry" />
        </mxCell>
        <mxCell id="z5uoEHmQc081tSA6JXY4-19" value="&lt;span style=&quot;font-size: 14px;&quot;&gt;&lt;b&gt;Patient&lt;/b&gt;&lt;/span&gt;" style="rounded=0;whiteSpace=wrap;html=1;" vertex="1" parent="1">
          <mxGeometry x="588" y="240" width="120" height="60" as="geometry" />
        </mxCell>
        <mxCell id="z5uoEHmQc081tSA6JXY4-20" value="" style="endArrow=none;html=1;rounded=0;exitX=1;exitY=0.75;exitDx=0;exitDy=0;entryX=0;entryY=0.5;entryDx=0;entryDy=0;" edge="1" parent="1" source="e_ChHj24QM5TAyRF-pIB-1" target="e_ChHj24QM5TAyRF-pIB-67">
          <mxGeometry width="50" height="50" relative="1" as="geometry">
            <mxPoint x="568" y="310" as="sourcePoint" />
            <mxPoint x="618" y="260" as="targetPoint" />
          </mxGeometry>
        </mxCell>
        <mxCell id="z5uoEHmQc081tSA6JXY4-21" value="" style="endArrow=none;html=1;rounded=0;entryX=0;entryY=0.75;entryDx=0;entryDy=0;shape=link;" edge="1" parent="1" source="e_ChHj24QM5TAyRF-pIB-67" target="z5uoEHmQc081tSA6JXY4-19">
          <mxGeometry width="50" height="50" relative="1" as="geometry">
            <mxPoint x="501" y="284.40999999999997" as="sourcePoint" />
            <mxPoint x="588" y="284.40999999999997" as="targetPoint" />
          </mxGeometry>
        </mxCell>
        <mxCell id="z5uoEHmQc081tSA6JXY4-26" value="" style="endArrow=none;html=1;rounded=0;entryX=0.623;entryY=1.039;entryDx=0;entryDy=0;entryPerimeter=0;exitX=0.191;exitY=-0.053;exitDx=0;exitDy=0;exitPerimeter=0;" edge="1" parent="1" source="z5uoEHmQc081tSA6JXY4-19" target="e_ChHj24QM5TAyRF-pIB-12">
          <mxGeometry width="50" height="50" relative="1" as="geometry">
            <mxPoint x="588" y="260" as="sourcePoint" />
            <mxPoint x="638" y="210" as="targetPoint" />
          </mxGeometry>
        </mxCell>
        <mxCell id="z5uoEHmQc081tSA6JXY4-27" value="" style="endArrow=none;html=1;rounded=0;entryX=0.5;entryY=1;entryDx=0;entryDy=0;exitX=0.455;exitY=-0.019;exitDx=0;exitDy=0;exitPerimeter=0;" edge="1" parent="1" source="z5uoEHmQc081tSA6JXY4-19" target="e_ChHj24QM5TAyRF-pIB-14">
          <mxGeometry width="50" height="50" relative="1" as="geometry">
            <mxPoint x="610" y="254" as="sourcePoint" />
            <mxPoint x="603" y="201" as="targetPoint" />
          </mxGeometry>
        </mxCell>
        <mxCell id="z5uoEHmQc081tSA6JXY4-28" value="" style="endArrow=none;html=1;rounded=0;entryX=0.401;entryY=0.968;entryDx=0;entryDy=0;entryPerimeter=0;exitX=0.823;exitY=-0.019;exitDx=0;exitDy=0;exitPerimeter=0;" edge="1" parent="1" source="z5uoEHmQc081tSA6JXY4-19" target="e_ChHj24QM5TAyRF-pIB-11">
          <mxGeometry width="50" height="50" relative="1" as="geometry">
            <mxPoint x="620" y="264" as="sourcePoint" />
            <mxPoint x="613" y="211" as="targetPoint" />
          </mxGeometry>
        </mxCell>
        <mxCell id="z5uoEHmQc081tSA6JXY4-29" value="Assigned" style="rhombus;whiteSpace=wrap;html=1;rounded=0;" vertex="1" parent="1">
          <mxGeometry x="571" y="362.5" width="70" height="70" as="geometry" />
        </mxCell>
        <mxCell id="z5uoEHmQc081tSA6JXY4-30" value="n" style="text;html=1;align=center;verticalAlign=middle;resizable=0;points=[];autosize=1;strokeColor=none;fillColor=none;" vertex="1" parent="1">
          <mxGeometry x="578" y="345" width="30" height="30" as="geometry" />
        </mxCell>
        <mxCell id="z5uoEHmQc081tSA6JXY4-31" value="1" style="text;html=1;align=center;verticalAlign=middle;resizable=0;points=[];autosize=1;strokeColor=none;fillColor=none;" vertex="1" parent="1">
          <mxGeometry x="578" y="420" width="30" height="30" as="geometry" />
        </mxCell>
        <mxCell id="z5uoEHmQc081tSA6JXY4-32" value="Examines" style="rhombus;whiteSpace=wrap;html=1;rounded=0;" vertex="1" parent="1">
          <mxGeometry x="655" y="362.5" width="70" height="70" as="geometry" />
        </mxCell>
        <mxCell id="z5uoEHmQc081tSA6JXY4-33" value="n" style="text;html=1;align=center;verticalAlign=middle;resizable=0;points=[];autosize=1;strokeColor=none;fillColor=none;" vertex="1" parent="1">
          <mxGeometry x="688" y="345" width="30" height="30" as="geometry" />
        </mxCell>
        <mxCell id="z5uoEHmQc081tSA6JXY4-34" value="m" style="text;html=1;align=center;verticalAlign=middle;resizable=0;points=[];autosize=1;strokeColor=none;fillColor=none;" vertex="1" parent="1">
          <mxGeometry x="695" y="420" width="30" height="30" as="geometry" />
        </mxCell>
        <mxCell id="z5uoEHmQc081tSA6JXY4-35" value="" style="endArrow=none;html=1;rounded=0;exitX=0.151;exitY=1.043;exitDx=0;exitDy=0;exitPerimeter=0;entryX=0.5;entryY=0;entryDx=0;entryDy=0;shape=link;" edge="1" parent="1" source="z5uoEHmQc081tSA6JXY4-19" target="z5uoEHmQc081tSA6JXY4-29">
          <mxGeometry width="50" height="50" relative="1" as="geometry">
            <mxPoint x="518" y="410" as="sourcePoint" />
            <mxPoint x="568" y="360" as="targetPoint" />
          </mxGeometry>
        </mxCell>
        <mxCell id="z5uoEHmQc081tSA6JXY4-36" value="" style="endArrow=none;html=1;rounded=0;exitX=0.5;exitY=1;exitDx=0;exitDy=0;entryX=0.157;entryY=-0.005;entryDx=0;entryDy=0;entryPerimeter=0;" edge="1" parent="1" source="z5uoEHmQc081tSA6JXY4-29" target="e_ChHj24QM5TAyRF-pIB-53">
          <mxGeometry width="50" height="50" relative="1" as="geometry">
            <mxPoint x="607.29" y="441" as="sourcePoint" />
            <mxPoint x="607.29" y="500" as="targetPoint" />
          </mxGeometry>
        </mxCell>
        <mxCell id="z5uoEHmQc081tSA6JXY4-37" value="" style="endArrow=none;html=1;rounded=0;exitX=0.865;exitY=1.007;exitDx=0;exitDy=0;exitPerimeter=0;entryX=0.5;entryY=0;entryDx=0;entryDy=0;" edge="1" parent="1" source="z5uoEHmQc081tSA6JXY4-19" target="z5uoEHmQc081tSA6JXY4-32">
          <mxGeometry width="50" height="50" relative="1" as="geometry">
            <mxPoint x="689.64" y="303.5" as="sourcePoint" />
            <mxPoint x="668" y="360" as="targetPoint" />
          </mxGeometry>
        </mxCell>
        <mxCell id="z5uoEHmQc081tSA6JXY4-38" value="" style="endArrow=none;html=1;rounded=0;exitX=0.5;exitY=1;exitDx=0;exitDy=0;entryX=0.86;entryY=0.019;entryDx=0;entryDy=0;entryPerimeter=0;" edge="1" parent="1" source="z5uoEHmQc081tSA6JXY4-32" target="e_ChHj24QM5TAyRF-pIB-53">
          <mxGeometry width="50" height="50" relative="1" as="geometry">
            <mxPoint x="691" y="438" as="sourcePoint" />
            <mxPoint x="689" y="500" as="targetPoint" />
          </mxGeometry>
        </mxCell>
        <mxCell id="z5uoEHmQc081tSA6JXY4-40" value="" style="endArrow=none;html=1;rounded=0;exitX=0.08;exitY=1.043;exitDx=0;exitDy=0;entryX=0.5;entryY=0;entryDx=0;entryDy=0;exitPerimeter=0;" edge="1" parent="1" source="e_ChHj24QM5TAyRF-pIB-53" target="e_ChHj24QM5TAyRF-pIB-58">
          <mxGeometry width="50" height="50" relative="1" as="geometry">
            <mxPoint x="605.5" y="560" as="sourcePoint" />
            <mxPoint x="606.5" y="628" as="targetPoint" />
          </mxGeometry>
        </mxCell>
        <mxCell id="z5uoEHmQc081tSA6JXY4-41" value="" style="endArrow=none;html=1;rounded=0;exitX=0.889;exitY=1.043;exitDx=0;exitDy=0;entryX=0.636;entryY=0.057;entryDx=0;entryDy=0;exitPerimeter=0;entryPerimeter=0;" edge="1" parent="1" source="e_ChHj24QM5TAyRF-pIB-53" target="e_ChHj24QM5TAyRF-pIB-86">
          <mxGeometry width="50" height="50" relative="1" as="geometry">
            <mxPoint x="608" y="573" as="sourcePoint" />
            <mxPoint x="616" y="612" as="targetPoint" />
          </mxGeometry>
        </mxCell>
        <mxCell id="z5uoEHmQc081tSA6JXY4-44" value="&lt;span style=&quot;font-size: 14px;&quot;&gt;&lt;b&gt;drug&lt;/b&gt;&lt;/span&gt;" style="rounded=0;whiteSpace=wrap;html=1;" vertex="1" parent="1">
          <mxGeometry x="398" y="582.5" width="120" height="60" as="geometry" />
        </mxCell>
        <mxCell id="z5uoEHmQc081tSA6JXY4-45" value="gives" style="rhombus;whiteSpace=wrap;html=1;rounded=0;" vertex="1" parent="1">
          <mxGeometry x="418" y="410" width="80" height="80" as="geometry" />
        </mxCell>
        <mxCell id="z5uoEHmQc081tSA6JXY4-46" value="" style="endArrow=none;html=1;rounded=0;exitX=0.5;exitY=0;exitDx=0;exitDy=0;entryX=0.5;entryY=1;entryDx=0;entryDy=0;" edge="1" parent="1" source="z5uoEHmQc081tSA6JXY4-44" target="z5uoEHmQc081tSA6JXY4-45">
          <mxGeometry width="50" height="50" relative="1" as="geometry">
            <mxPoint x="468" y="540" as="sourcePoint" />
            <mxPoint x="518" y="490" as="targetPoint" />
          </mxGeometry>
        </mxCell>
        <mxCell id="z5uoEHmQc081tSA6JXY4-47" value="" style="endArrow=none;html=1;rounded=0;exitX=1;exitY=0.5;exitDx=0;exitDy=0;entryX=0;entryY=0.5;entryDx=0;entryDy=0;" edge="1" parent="1" source="e_ChHj24QM5TAyRF-pIB-21" target="z5uoEHmQc081tSA6JXY4-45">
          <mxGeometry width="50" height="50" relative="1" as="geometry">
            <mxPoint x="468" y="592" as="sourcePoint" />
            <mxPoint x="468" y="500" as="targetPoint" />
          </mxGeometry>
        </mxCell>
        <mxCell id="z5uoEHmQc081tSA6JXY4-48" value="" style="endArrow=none;html=1;rounded=0;exitX=1;exitY=0.5;exitDx=0;exitDy=0;entryX=0;entryY=1;entryDx=0;entryDy=0;" edge="1" parent="1" source="z5uoEHmQc081tSA6JXY4-45" target="z5uoEHmQc081tSA6JXY4-19">
          <mxGeometry width="50" height="50" relative="1" as="geometry">
            <mxPoint x="353" y="530" as="sourcePoint" />
            <mxPoint x="428" y="460" as="targetPoint" />
          </mxGeometry>
        </mxCell>
        <mxCell id="z5uoEHmQc081tSA6JXY4-49" value="" style="endArrow=none;html=1;rounded=0;entryX=0.5;entryY=1;entryDx=0;entryDy=0;" edge="1" parent="1" source="e_ChHj24QM5TAyRF-pIB-34" target="z5uoEHmQc081tSA6JXY4-44">
          <mxGeometry width="50" height="50" relative="1" as="geometry">
            <mxPoint x="408" y="790" as="sourcePoint" />
            <mxPoint x="458" y="740" as="targetPoint" />
          </mxGeometry>
        </mxCell>
        <mxCell id="z5uoEHmQc081tSA6JXY4-50" value="" style="endArrow=none;html=1;rounded=0;entryX=0.862;entryY=0.982;entryDx=0;entryDy=0;entryPerimeter=0;" edge="1" parent="1" source="e_ChHj24QM5TAyRF-pIB-32" target="z5uoEHmQc081tSA6JXY4-44">
          <mxGeometry width="50" height="50" relative="1" as="geometry">
            <mxPoint x="460" y="740" as="sourcePoint" />
            <mxPoint x="468" y="652" as="targetPoint" />
          </mxGeometry>
        </mxCell>
        <mxCell id="z5uoEHmQc081tSA6JXY4-51" value="" style="endArrow=none;html=1;rounded=0;entryX=0.072;entryY=1.054;entryDx=0;entryDy=0;entryPerimeter=0;" edge="1" parent="1" source="e_ChHj24QM5TAyRF-pIB-65" target="z5uoEHmQc081tSA6JXY4-44">
          <mxGeometry width="50" height="50" relative="1" as="geometry">
            <mxPoint x="536" y="710" as="sourcePoint" />
            <mxPoint x="511" y="651" as="targetPoint" />
          </mxGeometry>
        </mxCell>
      </root>
    </mxGraphModel>
  </diagram>
</mxfile>
